<svg width="31" height="30" viewBox="0 0 31 30" fill="none" xmlns="http://www.w3.org/2000/svg">
<g id="insta">
<path id="Vector" d="M22.2209 0H8.77874C4.21384 0 0.5 3.71402 0.5 8.27892V21.7211C0.5 26.2862 4.21384 30 8.77874 30H22.2209C26.7862 30 30.5 26.286 30.5 21.7211V8.27892C30.5002 3.71402 26.7862 0 22.2209 0ZM27.8384 21.7211C27.8384 24.8185 25.3185 27.3383 22.2211 27.3383H8.77874C5.68153 27.3384 3.16175 24.8185 3.16175 21.7211V8.27892C3.16175 5.18171 5.68153 2.66175 8.77874 2.66175H22.2209C25.3183 2.66175 27.8383 5.18171 27.8383 8.27892V21.7211H27.8384Z" fill="#21243D"/>
<path id="Vector_2" d="M15.4998 7.27051C11.2373 7.27051 7.76953 10.7382 7.76953 15.0007C7.76953 19.2631 11.2373 22.7306 15.4998 22.7306C19.7623 22.7306 23.23 19.2631 23.23 15.0007C23.23 10.7382 19.7623 7.27051 15.4998 7.27051ZM15.4998 20.0687C12.7051 20.0687 10.4313 17.7952 10.4313 15.0006C10.4313 12.2057 12.7049 9.93208 15.4998 9.93208C18.2946 9.93208 20.5683 12.2057 20.5683 15.0006C20.5683 17.7952 18.2944 20.0687 15.4998 20.0687Z" fill="#21243D"/>
<path id="Vector_3" d="M23.5535 5.0127C23.0407 5.0127 22.5369 5.22031 22.1747 5.58408C21.8108 5.94608 21.6016 6.45004 21.6016 6.96464C21.6016 7.47765 21.811 7.98143 22.1747 8.3452C22.5367 8.7072 23.0407 8.91659 23.5535 8.91659C24.0681 8.91659 24.5703 8.7072 24.9341 8.3452C25.2978 7.98143 25.5055 7.47747 25.5055 6.96464C25.5055 6.45004 25.2978 5.94608 24.9341 5.58408C24.5721 5.22031 24.0681 5.0127 23.5535 5.0127Z" fill="#21243D"/>
</g>
</svg>
