<svg width="31" height="30" viewBox="0 0 31 30" fill="none" xmlns="http://www.w3.org/2000/svg">
<path id="Linkedin" d="M26.1055 0H4.89453C2.47159 0 0.5 1.97159 0.5 4.39453V25.6055C0.5 28.0284 2.47159 30 4.89453 30H26.1055C28.5284 30 30.5 28.0284 30.5 25.6055V4.39453C30.5 1.97159 28.5284 0 26.1055 0ZM11.1055 23.7891H7.58984V11.4844H11.1055V23.7891ZM11.1055 9.72656H7.58984V6.21094H11.1055V9.72656ZM23.4102 23.7891H19.8945V16.7578C19.8945 15.7887 19.1058 15 18.1367 15C17.1676 15 16.3789 15.7887 16.3789 16.7578V23.7891H12.8633V11.4844H16.3789V12.147C17.2999 11.8607 17.8982 11.4844 19.0156 11.4844C21.3999 11.4869 23.4102 13.6258 23.4102 16.1536V23.7891Z" fill="#21243D"/>
</svg>
