<svg width="38" height="30" viewBox="0 0 38 30" fill="none" xmlns="http://www.w3.org/2000/svg">
<g id="Group">
<path id="Vector" d="M37.4231 3.55154C36.05 4.15385 34.5869 4.55308 33.0615 4.74692C34.6308 3.81 35.8285 2.33769 36.3915 0.563077C34.9285 1.43538 33.3131 2.05154 31.5915 2.39538C30.2023 0.916154 28.2223 0 26.0623 0C21.8715 0 18.4977 3.40154 18.4977 7.57154C18.4977 8.17154 18.5485 8.74846 18.6731 9.29769C12.38 8.99077 6.81154 5.97462 3.07077 1.38C2.41769 2.51308 2.03462 3.81 2.03462 5.20615C2.03462 7.82769 3.38462 10.1515 5.39692 11.4969C4.18077 11.4738 2.98769 11.1208 1.97692 10.5646C1.97692 10.5877 1.97692 10.6177 1.97692 10.6477C1.97692 14.3262 4.60077 17.3815 8.04154 18.0854C7.42538 18.2538 6.75385 18.3346 6.05692 18.3346C5.57231 18.3346 5.08308 18.3069 4.62385 18.2054C5.60462 21.2031 8.38769 23.4069 11.6969 23.4785C9.12154 25.4931 5.85154 26.7069 2.31154 26.7069C1.69077 26.7069 1.09538 26.6792 0.5 26.6031C3.85308 28.7654 7.82692 30 12.1123 30C26.0415 30 33.6569 18.4615 33.6569 8.46C33.6569 8.12538 33.6454 7.80231 33.6292 7.48154C35.1315 6.41538 36.3938 5.08385 37.4231 3.55154Z" fill="#21243D"/>
</g>
</svg>
